<?xml version="1.0" standalone="no"?>
<!DOCTYPE svg PUBLIC "-//W3C//DTD SVG 1.1//EN" "http://www.w3.org/Graphics/SVG/1.1/DTD/svg11.dtd"><svg xmlns="http://www.w3.org/2000/svg" style="background-color:#FFF" width="901" height="696"><path stroke="black" fill="none" stroke-width="1" d="M481.21, 342.77L484.6, 342.91L487.82, 343.33L490.82, 344.03L493.59, 345.04L496.08, 346.38L498.25, 348.09L500.08, 350.18L501.53, 352.67L502.52, 355.04L503.41, 357.6L504.21, 360.36L504.91, 363.3L506.07, 369.73L506.93, 376.85L507.52, 384.62L507.87, 393.01L508.03, 401.99L508.04, 411.51L507.92, 421.54L507.72, 432.04L507.47, 442.98L507.22, 454.32L506.99, 466.02L506.83, 478.04L506.76, 490.36L506.84, 502.92L507.06, 519.87L507.17, 528.05L507.28, 536.02L507.39, 543.8L507.48, 551.37L507.56, 558.74L507.63, 565.9L507.69, 572.86L507.72, 579.61L507.73, 586.16L507.72, 592.49L507.68, 598.61L507.6, 604.53L507.5, 610.23L507.36, 615.72L507.17, 620.99L506.95, 626.05L506.69, 630.89L506.37, 635.52L506.01, 639.92L505.59, 644.11L505.12, 648.08L504.59, 651.82L504, 655.34L503.35, 658.64L502.63, 661.71L501.84, 664.56L500.98, 667.18L500.04, 669.58L499.03, 671.74L497.93, 673.67L496.38, 675.61L494.38, 677.24L491.99, 678.56L489.25, 679.6L486.21, 680.37L482.93, 680.89L479.45, 681.17L475.82, 681.23L472.1, 681.09L468.33, 680.76L460.84, 679.6L457.22, 678.8L453.75, 677.88L450.48, 676.85L447.46, 675.73L444.51, 674.39L441.55, 672.79L435.76, 668.95L430.29, 664.63L425.36, 660.22L423.15, 658.1L421.16, 656.1L419.4, 654.27L417.91, 652.67L416.7, 651.34L415.81, 650.32L415.25, 649.68L415.06, 649.45L414.94, 649.4L414.58, 649.23L414, 648.96L413.21, 648.59L412.23, 648.13L411.06, 647.58L408.25, 646.22L404.89, 644.56L401.08, 642.63L396.94, 640.48L392.58, 638.13L383.63, 633.02L379.27, 630.34L375.13, 627.61L371.33, 624.88L367.97, 622.19L365.16, 619.58L363.03, 617.08L360.13, 612.82L357.65, 608.65L355.58, 604.59L353.86, 600.65L352.47, 596.82L351.38, 593.12L350.54, 589.55L349.93, 586.12L349.51, 582.84L349.25, 579.71L349.06, 573.96L349.08, 568.9L349.1, 566.66L349.06, 564.61L348.82, 561.83L348.32, 559.06L346.72, 553.49L344.59, 547.73L342.25, 541.6L340.02, 534.95L339.04, 531.37L338.22, 527.6L337.58, 523.6L337.16, 519.37L337.02, 514.88L337.18, 510.11L337.77, 504.36L338.71, 499.1L339.94, 494.28L341.44, 489.87L343.16, 485.82L345.06, 482.09L347.09, 478.63L349.22, 475.4L353.6, 469.46L357.87, 463.92L361.69, 458.44L363.34, 455.61L364.75, 452.67L366.09, 449.2L367.18, 445.8L368.05, 442.48L368.73, 439.24L369.72, 432.99L370.47, 427.06L371.28, 421.47L372.47, 416.23L373.3, 413.74L374.35, 411.35L375.65, 409.04L377.25, 406.83L379.96, 403.67L382.72, 400.79L385.53, 398.17L388.34, 395.79L391.15, 393.62L393.93, 391.64L399.32, 388.16L404.35, 385.17L408.84, 382.5L410.83, 381.22L412.62, 379.95L414.19, 378.67L415.53, 377.36L418.05, 374.25L420.6, 370.77L423.46, 367.03L426.91, 363.14L428.94, 361.17L431.22, 359.2L433.79, 357.26L436.68, 355.34L439.93, 353.47L443.56, 351.66L447.63, 349.92L452.15, 348.27L459.25, 346.1L466.65, 344.34L474.07, 343.16L477.69, 342.86L481.21, 342.77"/><path stroke="black" fill="none" stroke-width="1" d="M471.21, 363.11L474.68, 363.34L478.02, 364.04L481.17, 365.27L484.09, 367.1L486.73, 369.57L487.93, 371.07L489.05, 372.74L490.06, 374.61L490.98, 376.68L491.8, 378.94L492.5, 381.42L492.71, 382.2L493.01, 383.23L493.75, 385.91L494.51, 389.18L495.05, 392.77L495.14, 396.39L494.95, 398.14L494.56, 399.78L493.94, 401.3L493.08, 402.66L491.93, 403.81L490.46, 404.73L488.81, 405.25L487.12, 405.27L485.38, 404.85L483.6, 404.06L481.79, 402.98L479.95, 401.67L476.21, 398.65L472.42, 395.54L470.51, 394.14L468.61, 392.92L466.72, 391.95L464.83, 391.32L462.97, 391.07L461.12, 391.3L459.36, 391.9L457.65, 392.84L456.16, 394.17L455.06, 395.94L454.72, 397.01L454.54, 398.2L454.55, 399.53L454.77, 401L455.22, 402.62L455.93, 404.39L456.91, 406.32L458.18, 408.42L459.75, 410.51L461.56, 412.43L463.57, 414.2L465.75, 415.84L470.49, 418.82L475.48, 421.55L480.45, 424.19L485.11, 426.92L487.23, 428.38L489.16, 429.92L490.88, 431.57L492.34, 433.36L493.73, 435.53L494.92, 437.84L495.9, 440.27L496.67, 442.8L497.25, 445.4L497.62, 448.06L497.78, 450.76L497.73, 453.49L497.49, 456.21L497.03, 458.91L496.37, 461.57L495.5, 464.17L494.43, 466.69L493.15, 469.11L491.66, 471.41L489.96, 473.58L488.19, 475.39L486.45, 476.68L484.71, 477.52L482.97, 477.98L481.2, 478.13L479.39, 478.02L475.52, 477.33L471.21, 476.44L468.83, 476.09L466.29, 475.88L463.55, 475.9L460.59, 476.2L457.41, 476.85L453.96, 477.92L451.26, 479.04L448.59, 480.41L443.31, 483.69L438.09, 487.45L432.86, 491.35L427.61, 495.08L422.26, 498.31L419.55, 499.63L416.79, 500.71L414, 501.5L411.15, 501.95L409.09, 501.92L407.11, 501.46L405.19, 500.64L403.33, 499.51L401.53, 498.14L399.78, 496.6L396.42, 493.24L393.2, 489.92L391.63, 488.44L390.09, 487.16L388.56, 486.14L387.05, 485.45L385.54, 485.15L384.03, 485.3L382.26, 485.92L381.03, 486.68L380.27, 487.59L379.92, 488.62L379.9, 489.77L380.17, 491.03L381.3, 493.81L382.78, 496.9L384.12, 500.19L384.58, 501.89L384.81, 503.61L384.75, 505.35L384.34, 507.08L383.49, 508.96L382.33, 510.85L379.33, 514.54L375.95, 518.04L372.8, 521.22L371.49, 522.65L370.45, 523.96L369.78, 525.13L369.53, 526.14L369.79, 526.98L370.63, 527.64L372.12, 528.09L373.13, 528.24L374.34, 528.33L376.51, 528.11L378.56, 527.36L380.59, 526.23L382.64, 524.89L384.81, 523.5L387.15, 522.21L389.76, 521.2L392.68, 520.61L394.42, 520.62L396.24, 520.95L398.13, 521.56L400.08, 522.4L404.13, 524.6L408.31, 527.17L412.55, 529.74L416.76, 531.92L418.83, 532.76L420.86, 533.36L422.85, 533.68L424.78, 533.67L426.33, 533.35L427.75, 532.74L429.05, 531.86L430.25, 530.74L431.37, 529.4L432.45, 527.89L434.52, 524.44L436.64, 520.61L438.99, 516.62L441.73, 512.71L443.31, 510.86L445.06, 509.11L446.83, 507.52L448.49, 506.13L451.49, 503.84L454.11, 502.13L456.43, 500.87L458.51, 499.92L460.41, 499.16L463.93, 497.7L467.81, 496.12L471.62, 495.17L475.35, 494.92L477.17, 495.08L478.96, 495.45L480.72, 496.03L482.44, 496.84L484.11, 497.88L485.74, 499.17L487.32, 500.71L488.84, 502.51L490.31, 504.59L491.71, 506.95L492.99, 509.64L494.07, 512.63L494.96, 515.88L495.66, 519.33L496.16, 522.92L496.48, 526.59L496.55, 533.96L496.31, 537.55L495.9, 540.99L495.3, 544.23L494.52, 547.21L493.57, 549.88L492.45, 552.17L491.15, 554.04L489.68, 555.42L487.9, 556.52L486.16, 557.25L484.46, 557.64L482.82, 557.73L481.24, 557.56L479.74, 557.16L476.97, 555.85L474.58, 554.08L472.64, 552.15L471.22, 550.37L470.72, 549.62L470.37, 549.02L469.13, 546.43L468.1, 543.89L466.54, 539.05L465.45, 534.6L464.59, 530.66L463.68, 527.31L463.13, 525.9L462.48, 524.69L461.7, 523.68L460.75, 522.89L459.6, 522.33L458.21, 522.02L456.33, 522.09L454.7, 522.74L453.3, 523.91L452.05, 525.52L450.93, 527.49L449.88, 529.75L447.81, 534.85L445.45, 540.24L444.04, 542.85L442.42, 545.31L440.54, 547.55L438.35, 549.48L435.8, 551.05L432.84, 552.17L429.65, 552.77L426.45, 552.88L423.26, 552.56L420.08, 551.89L416.96, 550.93L413.9, 549.75L408.04, 547.03L402.66, 544.28L400.21, 543.07L397.93, 542.06L395.85, 541.33L393.99, 540.94L392.36, 540.95L391, 541.45L389.58, 542.52L388.6, 543.67L388.03, 544.91L387.81, 546.22L387.89, 547.61L388.23, 549.07L389.51, 552.23L391.25, 555.67L393.07, 559.39L394.62, 563.38L395.16, 565.46L395.5, 567.61L395.58, 569.67L395.45, 571.5L395.14, 573.13L394.68, 574.58L393.47, 577.06L392.12, 579.13L390.91, 580.98L390.14, 582.82L390.01, 583.8L390.1, 584.84L390.45, 585.98L391.09, 587.23L392.11, 588.55L393.3, 589.41L394.64, 589.85L396.13, 589.92L397.78, 589.65L399.58, 589.08L401.52, 588.27L403.61, 587.24L408.2, 584.71L413.33, 581.83L418.98, 578.92L425.12, 576.33L431.76, 573.53L438.4, 570.59L441.92, 569.28L445.67, 568.2L449.73, 567.42L454.18, 567.05L456.77, 567.25L459.07, 567.94L461.15, 568.98L463.11, 570.26L466.96, 572.97L469.03, 574.14L471.31, 575.02L473.12, 575.45L474.76, 575.7L477.6, 575.81L479.98, 575.66L482.06, 575.57L483.98, 575.85L484.92, 576.24L485.89, 576.84L486.89, 577.7L487.94, 578.85L489.06, 580.34L490.28, 582.2L491.26, 583.84L492.1, 585.28L493.35, 587.71L494.13, 589.76L494.55, 591.69L494.71, 593.77L494.7, 596.25L494.67, 597.73L494.64, 599.4L494.62, 601.31L494.62, 603.48L494.68, 609.95L494.7, 616.2L494.6, 622.29L494.33, 628.27L493.81, 634.21L492.97, 640.17L491.73, 646.21L490.03, 652.39L489.26, 654.52L488.37, 656.45L487.35, 658.18L486.22, 659.72L484.99, 661.08L483.65, 662.26L480.72, 664.14L477.49, 665.39L474.02, 666.08L470.38, 666.26L466.63, 665.99L462.83, 665.31L459.05, 664.29L455.35, 662.98L451.8, 661.43L448.44, 659.69L445.36, 657.82L442.6, 655.88L440.25, 653.92L436.26, 649.81L432.66, 645.2L429.55, 640.33L427.05, 635.44L426.07, 633.06L425.27, 630.77L424.68, 628.59L424.31, 626.56L424.18, 624.7L424.29, 623.04L424.66, 621.61L425.31, 620.45L426.21, 619.44L427.32, 618.47L430.01, 616.74L433.12, 615.45L436.43, 614.77L438.07, 614.72L439.67, 614.89L441.2, 615.3L442.62, 615.97L443.9, 616.93L445.01, 618.19L445.93, 619.79L446.62, 621.73L448.15, 626.98L450.05, 632.17L451.16, 634.61L452.38, 636.86L453.72, 638.88L455.18, 640.61L456.75, 641.98L458.4, 643.03L460.08, 643.77L461.72, 644.23L463.28, 644.43L464.7, 644.39L465.93, 644.13L466.9, 643.67L467.77, 642.92L468.31, 642.03L468.57, 641.02L468.59, 639.89L468.11, 637.33L467.2, 634.43L466.23, 631.27L465.53, 627.92L465.39, 626.21L465.46, 624.47L465.77, 622.73L466.37, 620.98L467.25, 619.31L468.36, 617.73L471.06, 614.86L474.14, 612.26L477.29, 609.82L480.16, 607.43L481.39, 606.22L482.43, 604.98L483.23, 603.7L483.77, 602.37L483.98, 600.97L483.84, 599.48L483.25, 597.74L482.37, 596.42L481.22, 595.49L479.83, 594.91L478.24, 594.64L476.47, 594.63L474.56, 594.84L472.54, 595.23L468.28, 596.38L463.94, 597.75L459.75, 599.01L457.79, 599.5L455.96, 599.83L453.35, 599.9L451.09, 599.42L448.98, 598.55L446.85, 597.44L444.51, 596.24L441.79, 595.09L438.49, 594.16L436.57, 593.81L434.43, 593.58L430.75, 593.53L427.42, 593.92L424.45, 594.66L421.85, 595.64L419.62, 596.77L417.77, 597.96L416.3, 599.09L415.21, 600.08L414.09, 601.37L413.06, 602.85L411.27, 606.24L408.08, 613.65L406.37, 617.09L405.41, 618.62L404.36, 619.97L403.2, 621.1L401.91, 621.98L400.46, 622.56L398.84, 622.83L397.64, 622.77L396.3, 622.48L394.83, 621.95L393.24, 621.18L391.53, 620.17L389.73, 618.91L387.83, 617.41L385.85, 615.66L383.79, 613.65L381.67, 611.38L379.5, 608.86L377.28, 606.08L375.03, 603.03L372.75, 599.71L370.45, 596.13L368.15, 592.27L366.95, 589.8L366.09, 587.27L365.54, 584.67L365.25, 582.02L365.26, 576.62L365.74, 571.11L366.31, 565.6L366.6, 560.14L366.53, 557.45L366.24, 554.81L365.69, 552.23L364.84, 549.7L362.38, 544.03L360.01, 538.93L357.82, 534.22L355.93, 529.69L354.44, 525.17L353.45, 520.45L353.18, 517.95L353.07, 515.34L353.14, 512.57L353.4, 509.64L353.8, 506.87L354.31, 504.26L355.63, 499.51L357.31, 495.32L359.27, 491.63L361.47, 488.37L363.85, 485.49L366.33, 482.92L368.87, 480.6L373.88, 476.45L376.23, 474.49L378.39, 472.53L380.31, 470.5L381.92, 468.35L383.17, 466L384, 463.39L384.79, 458.47L385.15, 453.66L385.22, 448.99L385.17, 444.5L385.16, 440.21L385.35, 436.15L385.9, 432.34L386.96, 428.83L388.4, 425.59L389.86, 422.71L391.35, 420.16L392.84, 417.93L394.31, 415.99L395.75, 414.33L397.13, 412.92L398.45, 411.75L399.68, 410.79L400.8, 410.02L401.8, 409.43L402.65, 408.99L403.35, 408.68L403.87, 408.49L404.2, 408.39L404.31, 408.36L406.01, 408.63L407.6, 409.1L409.07, 409.76L410.42, 410.6L411.66, 411.6L412.77, 412.77L414.65, 415.57L416.05, 418.93L416.95, 422.8L417.35, 427.09L417.25, 431.77L417.04, 433.05L416.59, 434.75L415.96, 436.8L415.18, 439.15L414.31, 441.73L413.38, 444.5L411.55, 450.34L410.07, 456.22L409.57, 459.02L409.29, 461.65L409.28, 464.06L409.58, 466.19L410.24, 467.97L411.31, 469.36L412.36, 470.06L413.38, 470.25L414.39, 469.99L415.39, 469.33L416.42, 468.34L417.47, 467.05L418.57, 465.55L419.72, 463.87L422.27, 460.22L425.24, 456.57L426.91, 454.88L428.73, 453.36L430.71, 452.06L432.87, 451.05L432.98, 451.08L433.31, 451.17L434.55, 451.5L436.47, 451.98L438.97, 452.57L441.93, 453.21L445.23, 453.85L452.43, 454.93L456.1, 455.26L459.66, 455.39L463, 455.25L466.01, 454.81L468.57, 454L470.58, 452.78L471.34, 452L471.92, 451.1L472.3, 450.06L472.46, 448.89L472.38, 447.49L472.01, 446.28L471.38, 445.23L470.5, 444.32L469.41, 443.52L468.13, 442.8L465.08, 441.5L461.57, 440.19L457.8, 438.65L453.94, 436.67L452.05, 435.44L450.21, 434.02L446.88, 431.14L444.02, 428.58L441.6, 426.28L439.56, 424.17L437.84, 422.17L436.38, 420.23L435.14, 418.27L434.06, 416.23L432.48, 412.66L431.24, 409.16L430.32, 405.72L429.72, 402.36L429.44, 399.09L429.46, 395.92L429.77, 392.86L430.36, 389.92L431.23, 387.1L432.37, 384.42L433.77, 381.88L435.42, 379.51L437.32, 377.29L439.45, 375.25L441.8, 373.4L444.37, 371.73L447.19, 370.17L450.26, 368.63L453.53, 367.17L456.95, 365.85L460.48, 364.73L464.06, 363.86L467.66, 363.3L471.21, 363.11"/><path stroke="black" fill="none" stroke-width="1" d="M668.68, 470.35L666.89, 483L665.15, 495.21L663.48, 507.01L661.85, 518.38L660.28, 529.33L658.75, 539.86L657.26, 549.97L655.81, 559.67L654.39, 568.95L653, 577.82L651.63, 586.28L650.29, 594.32L648.96, 601.96L647.64, 609.19L646.34, 616.01L645.03, 622.43L643.73, 628.45L642.42, 634.06L641.11, 639.28L639.79, 644.09L638.44, 648.51L637.08, 652.54L635.7, 656.17L634.29, 659.4L632.85, 662.25L631.37, 664.71L629.85, 666.78L628.28, 668.46L626.67, 669.75L625.01, 670.67L623.29, 671.2L621.52, 671.35L619.46, 671.14L617.52, 670.58L615.68, 669.67L613.95, 668.43L612.3, 666.86L610.75, 664.95L609.27, 662.7L607.88, 660.12L606.57, 657.22L605.32, 653.98L604.13, 650.42L603.01, 646.54L601.94, 642.34L600.91, 637.81L599.94, 632.97L599, 627.81L598.09, 622.34L597.22, 616.55L596.37, 610.46L595.54, 604.06L594.72, 597.35L593.91, 590.34L593.11, 583.02L592.3, 575.4L591.49, 567.49L590.67, 559.28L589.83, 550.77L588.97, 541.97L588.09, 532.88L587.17, 523.5L586.22, 513.84L585.23, 503.89L583.98, 491.06L582.75, 478L580.26, 451.75L578.96, 438.86L577.58, 426.33L576.1, 414.29L574.49, 402.9L573.64, 397.49L572.74, 392.3L571.8, 387.34L570.82, 382.64L569.78, 378.21L568.7, 374.06L567.56, 370.23L566.36, 366.73L565.09, 363.56L563.77, 360.77L562.38, 358.35L560.91, 356.34L559.37, 354.74L557.76, 353.58L556.07, 352.88L554.29, 352.65L552.51, 352.8L550.79, 353.23L549.14, 353.94L547.54, 354.94L546, 356.22L544.51, 357.79L543.07, 359.65L541.66, 361.79L540.29, 364.23L538.94, 366.96L537.63, 369.98L536.33, 373.3L535.05, 376.92L533.79, 380.84L532.52, 385.06L531.27, 389.58L530.01, 394.4L528.74, 399.54L527.46, 404.98L526.16, 410.73L524.85, 416.79L523.5, 423.16L522.13, 429.84L520.72, 436.85L519.27, 444.17L517.78, 451.8L516.24, 459.76L514.64, 468.05L512.99, 476.65L511.27, 485.58L509.48, 494.84L507.62, 504.43"/><path stroke="black" fill="none" stroke-width="1" d="M502.96, 505.73L686.98, 509.9"/></svg>